<?xml version="1.0" encoding="utf-8"?>
<!-- Generator: Adobe Illustrator 27.0.1, SVG Export Plug-In . SVG Version: 6.00 Build 0)  -->
<svg version="1.1" id="Layer_1" xmlns="http://www.w3.org/2000/svg" xmlns:xlink="http://www.w3.org/1999/xlink" x="0px" y="0px"
	 viewBox="0 0 68 68" style="enable-background:new 0 0 68 68;" xml:space="preserve">
<style type="text/css">
	.st0{opacity:0.3;}
</style>
<rect x="0.4" y="0.4" class="st0" width="7.7" height="7.7"/>
<rect x="8.9" y="0.4" class="st0" width="7.7" height="7.7"/>
<rect x="17.4" y="0.4" class="st0" width="7.7" height="7.7"/>
<rect x="25.9" y="0.4" class="st0" width="7.7" height="7.7"/>
<rect x="34.4" y="0.4" class="st0" width="7.7" height="7.7"/>
<rect x="0.4" y="8.9" class="st0" width="7.7" height="7.7"/>
<rect x="8.9" y="8.9" class="st0" width="7.7" height="7.7"/>
<rect x="17.4" y="8.9" class="st0" width="7.7" height="7.7"/>
<rect x="25.9" y="8.9" class="st0" width="7.7" height="7.7"/>
<rect x="34.4" y="8.9" class="st0" width="7.7" height="7.7"/>
<rect x="0.4" y="17.4" class="st0" width="7.7" height="7.7"/>
<rect x="8.9" y="17.4" class="st0" width="7.7" height="7.7"/>
<rect x="17.4" y="17.4" class="st0" width="7.7" height="7.7"/>
<rect x="25.9" y="17.4" class="st0" width="7.7" height="7.7"/>
<rect x="34.4" y="17.4" class="st0" width="7.7" height="7.7"/>
<rect x="0.4" y="25.9" class="st0" width="7.7" height="7.7"/>
<rect x="8.9" y="25.9" class="st0" width="7.7" height="7.7"/>
<rect x="17.4" y="25.9" class="st0" width="7.7" height="7.7"/>
<rect x="25.9" y="25.9" class="st0" width="7.7" height="7.7"/>
<rect x="34.4" y="25.9" class="st0" width="7.7" height="7.7"/>
<rect x="0.4" y="34.4" class="st0" width="7.7" height="7.7"/>
<rect x="8.9" y="34.4" class="st0" width="7.7" height="7.7"/>
<rect x="17.4" y="34.4" class="st0" width="7.7" height="7.7"/>
<rect x="25.9" y="34.4" class="st0" width="7.7" height="7.7"/>
<rect x="34.4" y="34.4" class="st0" width="7.7" height="7.7"/>
<rect x="42.9" y="0.4" class="st0" width="7.7" height="7.7"/>
<rect x="51.4" y="0.4" class="st0" width="7.7" height="7.7"/>
<rect x="60" y="0.4" class="st0" width="7.7" height="7.7"/>
<rect x="42.9" y="8.9" class="st0" width="7.7" height="7.7"/>
<rect x="51.4" y="8.9" class="st0" width="7.7" height="7.7"/>
<rect x="60" y="8.9" class="st0" width="7.7" height="7.7"/>
<rect x="42.9" y="17.4" class="st0" width="7.7" height="7.7"/>
<rect x="51.4" y="17.4" class="st0" width="7.7" height="7.7"/>
<rect x="60" y="17.4" class="st0" width="7.7" height="7.7"/>
<rect x="42.9" y="25.9" class="st0" width="7.7" height="7.7"/>
<rect x="51.4" y="25.9" class="st0" width="7.7" height="7.7"/>
<rect x="60" y="25.9" class="st0" width="7.7" height="7.7"/>
<rect x="42.9" y="34.4" class="st0" width="7.7" height="7.7"/>
<rect x="51.4" y="34.4" class="st0" width="7.7" height="7.7"/>
<rect x="60" y="34.4" class="st0" width="7.7" height="7.7"/>
<rect x="0.4" y="42.9" class="st0" width="7.7" height="7.7"/>
<rect x="8.9" y="42.9" class="st0" width="7.7" height="7.7"/>
<rect x="17.4" y="42.9" class="st0" width="7.7" height="7.7"/>
<rect x="25.9" y="42.9" class="st0" width="7.7" height="7.7"/>
<rect x="34.4" y="42.9" class="st0" width="7.7" height="7.7"/>
<rect x="0.4" y="51.4" class="st0" width="7.7" height="7.7"/>
<rect x="8.9" y="51.4" class="st0" width="7.7" height="7.7"/>
<rect x="17.4" y="51.4" class="st0" width="7.7" height="7.7"/>
<rect x="25.9" y="51.4" class="st0" width="7.7" height="7.7"/>
<rect x="34.4" y="51.4" class="st0" width="7.7" height="7.7"/>
<rect x="0.4" y="60" class="st0" width="7.7" height="7.7"/>
<rect x="8.9" y="60" class="st0" width="7.7" height="7.7"/>
<rect x="17.4" y="60" class="st0" width="7.7" height="7.7"/>
<rect x="25.9" y="60" class="st0" width="7.7" height="7.7"/>
<rect x="34.4" y="60" class="st0" width="7.7" height="7.7"/>
<rect x="42.9" y="42.9" class="st0" width="7.7" height="7.7"/>
<rect x="51.4" y="42.9" class="st0" width="7.7" height="7.7"/>
<rect x="60" y="42.9" class="st0" width="7.7" height="7.7"/>
<rect x="42.9" y="51.4" class="st0" width="7.7" height="7.7"/>
<rect x="51.4" y="51.4" class="st0" width="7.7" height="7.7"/>
<rect x="60" y="51.4" class="st0" width="7.7" height="7.7"/>
<rect x="42.9" y="60" class="st0" width="7.7" height="7.7"/>
<rect x="51.4" y="60" class="st0" width="7.7" height="7.7"/>
<rect x="60" y="60" class="st0" width="7.7" height="7.7"/>
</svg>
