<?xml version="1.0" encoding="utf-8"?>
<!-- Generator: Adobe Illustrator 27.0.1, SVG Export Plug-In . SVG Version: 6.00 Build 0)  -->
<svg version="1.1" id="Layer_1" xmlns="http://www.w3.org/2000/svg" xmlns:xlink="http://www.w3.org/1999/xlink" x="0px" y="0px"
	 viewBox="0 0 144 144" style="enable-background:new 0 0 144 144;" xml:space="preserve">
<style type="text/css">
	.st0{fill:#FFFFFF;}
</style>
<path class="st0" d="M124.5,39.2c-3.9,2-7.9,2.6-12.5,3.3c4.6-2.6,7.9-6.6,9.2-11.8c-3.9,2.6-8.5,3.9-13.8,5.2
	c-3.9-3.9-9.8-6.6-15.7-6.6c-11.2,0-21,9.8-21,21.7c0,2,0,3.3,0.7,4.6c-17.7-0.7-34.1-9.2-44.6-22.3c-2,3.3-2.6,6.6-2.6,11.2
	c0,7.2,3.9,13.8,9.8,17.7c-3.3,0-6.6-1.3-9.8-2.6l0,0c0,10.5,7.2,19,17.1,21c-2,0.7-3.9,0.7-5.9,0.7c-1.3,0-2.6,0-3.9-0.7
	c2.6,8.5,10.5,15.1,20.3,15.1c-7.2,5.9-16.4,9.2-26.9,9.2c-2,0-3.3,0-5.2,0c9.8,5.9,21,9.8,32.8,9.8c39.4,0,61-32.8,61-61
	c0-0.7,0-2,0-2.6C117.9,47.7,121.9,43.8,124.5,39.2z"/>
</svg>
