<?xml version="1.0" encoding="utf-8"?>
<!-- Generator: Adobe Illustrator 27.0.1, SVG Export Plug-In . SVG Version: 6.00 Build 0)  -->
<svg version="1.1" id="Layer_1" xmlns="http://www.w3.org/2000/svg" xmlns:xlink="http://www.w3.org/1999/xlink" x="0px" y="0px"
	 viewBox="0 0 104.9 79.4" style="enable-background:new 0 0 104.9 79.4;" xml:space="preserve">
<style type="text/css">
	.st0{fill:#FFFFFF;}
</style>
<path class="st0" d="M69.9,79c-5,0-9.4-2-12.5-5.7c-0.7-0.7-1.2-1.5-1.5-2.2c-2,3-5.5,7.8-11.7,7.9L44,79c-0.1,0-0.2,0-0.3,0
	c-1-0.1-1.9-0.1-3-0.1c-3.3,0-7.7,0-11.7-3c-2.4-1.5-4-3.8-4.6-6.4c-0.4-1.9-0.3-3.9,0.2-5.8c-2.7,1.3-5.9,2.4-9.1,2.4
	c0,0-0.1,0-0.1,0c-3-0.1-5.6-1-7.7-2.7c-0.1-0.1-0.1-0.1-0.2-0.2c-0.1-0.1-0.2-0.2-0.4-0.3l-0.3-0.2c0,0-0.1-0.1-0.1-0.1
	C4.9,61,2,58.6,1.4,54.8c-1.4-3.1-1-6.7,1.2-9.6c3.1-5,6.6-6.8,9.3-7.3c-0.1-0.2-0.3-0.4-0.4-0.6c-2-2.9-3.2-5.5-3.4-7.8
	c-0.3-2.5,0-5,0.9-7.4c1.2-2.7,3.1-4.6,5.7-5.5c2.3-2.1,4.6-3.2,6.8-3.2c2.5,0,4.7,1.3,6.2,3.6c0.1,0.2,0.3,0.4,0.5,0.6c0,0,0,0,0,0
	c0.3-1.7,0.8-3.4,1.5-4.9c2.6-6.7,7.3-10.6,12.7-10.6c0.2,0,0.6,0,0.9,0c1.3-0.3,2.6-0.4,3.8-0.4c5.4,0,11.2,2.7,15.9,7.3
	c0.3-0.9,0.7-1.8,1.5-2.5c0.7-0.8,2.5-2.7,5.2-3.4c0.8-0.8,1.8-1.2,2.8-1.3c0.1,0,0.1,0,0.2-0.1l0.1,0c0.4-0.1,1.1-0.3,1.9-0.3
	c0.6,0,1.2,0.1,1.9,0.3c2.7,0.7,4.8,2.2,6,4.2c1.1,1.8,1.2,3.8,1,5.6c2.1-1.3,4.3-1.9,6.5-1.9c3.4,0,6.8,1.6,9.2,4.5
	c2.7,3.3,3.8,7.6,3.2,12c0.1,1.8-0.5,3.3-1.7,4.5c-0.2,0.2-0.4,0.4-0.6,0.5c1.3,2.1,2.1,4.3,2.6,5.7c1.9,4.4,0,8.1-1.2,10.6
	l-0.2,0.3c0,0.1-0.1,0.1-0.1,0.2c-0.2,0.4-0.5,0.8-0.6,1.1c0,0.1-0.1,0.1-0.1,0.2l-0.1,0.2c-0.1,0.3-0.3,0.5-0.5,0.7l-0.2,0.2
	c-2.3,2.6-5.4,3.9-9,3.9c-1.8,0-3.7-0.3-5.4-0.9c3.6,9,1.8,14.8-0.6,18.2c-0.1,0.4-0.4,0.8-0.7,1.1C80,76.8,75.1,79,69.9,79z
	 M40.5,61.4c0,0.1,0,0.2-0.1,0.2L40.3,62c-0.1,0.2-0.2,0.5-0.3,0.7L39.8,63c-0.6,0.9-0.8,2-0.5,2.8c0,0.1,0,0.1,0.1,0.2
	c0.1,0.2,0.2,0.5,0.9,0.6c0.2,0.1,0.5,0.1,0.7,0.2l0.4,0.2c0.5,0.3,1,0.4,1.4,0.4c0.5,0,0.9-0.1,1.1-0.2c-0.6-0.3-1.3-0.7-2-1.3
	l-0.3-0.3c-0.4-0.4-0.6-0.8-0.7-1.3l-0.1-0.3c-0.3-1-0.3-1.8-0.2-2.6C40.5,61.4,40.5,61.4,40.5,61.4z M62.6,55.2c0.5,0,2.2,0,4,0.5
	c-1.7-1.8-3.9-3.3-6.1-3.9c0.1,0.6,0.1,1.3,0.2,1.9c0,0,0,0.1,0,0.1c0,0.5,0.1,1,0.1,1.5c0.3-0.1,0.7-0.2,1-0.2H62.6z"/>
<path class="st0" d="M69.9,76.2c-4.2,0-7.9-1.7-10.4-4.8c-1.4-1.3-1.3-3.1-1.2-4.2c0-0.4,0.1-0.9,0-1.2c-0.6-0.8-0.6-1.6-0.5-2.2
	s0.5-1.1,0.7-1.5c0-0.1,0.1-0.1,0.1-0.2c0-1.4,1.1-2.1,1.5-2.5c0.1,0,0.1-0.1,0.2-0.1l0.2-0.2h0.1c0.1-0.3,0.4-0.7,1-1.1l0.3-0.2
	h0.4c0.1,0,0.2,0,0.3,0s5.2,0,6.8,2.6c0.6,0.9,0.6,1.9,0.2,3l0,0c-0.4,0.9-1.2,1.4-2.2,1.4c-0.6,0-1.2-0.2-1.7-0.4
	c-0.2-0.1-0.4-0.2-0.5-0.2H65h-0.3c-0.2,0-0.4,0-0.6,0c-0.4,0-0.6,0.1-0.6,0.1c-0.1,0.2-0.1,1.5,1,3.3v0.1V68
	c0.6,1.2,1.7,1.7,4.2,1.8H69l0.2,0.1c0.2,0.1,0.4,0.1,0.6,0.1c0.3,0,0.7-0.1,1.2-0.7c1.5-1.8,2.1-5.8,1.8-7.7
	C71.9,55.7,66,49.8,60,48.8h-0.1c-0.7,0-1.2-0.3-1.4-0.6C58.4,48.1,58,48,57.7,48l0,0c-0.3,1.9-0.1,4,0.2,6.1
	c0.4,4,0.8,8.5-2.1,12.3l0,0c-0.6,0.7-1.2,1.6-1.8,2.5c-2,3.1-4.8,7.2-9.8,7.3h-0.1H44c-1.1-0.1-2.1-0.1-3.3-0.1
	c-3.4,0-7-0.1-10.1-2.5c-1.8-1.1-3-2.7-3.4-4.6c-0.9-4.1,1.8-8.9,3.9-12.1l0.1-0.1l0.1-0.1C33.6,54,38.1,52,42,52
	c3.1,0,5.4,1.2,6.6,3.3c-0.1-0.4-0.2-0.8-0.3-1.3c-0.4-1.4-0.8-2.9-1-4.3c-0.3-1.5-0.5-2-0.6-2.1l0,0c-0.6,0-1.8,0.5-2.5,0.8
	c-6,2.4-11.4,6.3-17.4,10.8l0,0c-2.6,1.9-7,4.1-11.2,4.1c-2.4-0.1-4.4-0.8-6-2.1c-0.3-0.3-0.6-0.5-1-0.8C6.8,58.9,4.5,57,4.2,54
	C3,51.7,3.3,49,5,46.8c2.3-3.8,5.1-5.9,8.2-6.2h0.2h0.2c0.5,0.1,1.2,0.1,1.8,0.2c1.3,0.1,2.6,0.2,4,0.5c-0.2-0.1-0.4-0.2-0.6-0.3
	l-0.1-0.1l-0.1-0.1c-1.5-1.2-3.3-3.1-4.7-5.1c-1.2-1.7-2.7-4.2-2.9-6.5c-0.3-2.1,0-4.2,0.7-6c0.9-2.1,2.5-3.5,4.5-4
	c1.9-1.9,3.7-2.9,5.3-2.9c1.1,0,2.6,0.4,3.8,2.3c0.3,0.5,0.7,0.9,1.1,1.4c1.2,1.4,2.6,3,3,5.2c0.5,1.5-0.3,3.7-1.2,5.1
	c-1,1.5-2.1,1.8-2.8,1.8l0,0c-0.6,0-2-0.2-2.6-2.5L22.6,29l0.3-0.6c0.3-0.6,0.3-1.2,0.1-2.1c-0.7-0.1-1.5-0.4-2.2-0.6
	c-0.6-0.2-1.2-0.4-1.6-0.5c-0.1,0.3-0.3,0.6-0.4,0.9c-0.4,0.7-0.9,1.7-0.8,2.2c0.2,0.6,0.1,1.2,0,1.6c0.2,0.3,0.9,0.6,1.8,0.9
	c0.8,0.3,1.6,0.6,2.3,1.2h0.1h0.1c2.1,2,4.7,2.3,8.4,2.3c0.5,0,0.9,0,1.4,0c0.5,0,0.9,0,1.4,0c2.6,0,5.6,0.1,8.4,1.6
	c0.7,0,1.7-0.1,2.3-0.1c0-0.4,0.1-1,0.4-1.7c-0.7-0.3-2.7-0.4-4-0.5c-3.1-0.2-6.7-0.4-7.9-2.8c-3.1-3.3-2.7-11.2-0.4-16.9
	c2.2-5.6,5.9-8.8,10.1-8.8c0.3,0,0.7,0,1,0.1c1.2-0.3,2.4-0.5,3.7-0.5c5.6,0,11.7,3.4,16.2,9c1.3,1.1,1.9,3.3,2.5,5.6
	c0.2,0.7,0.4,1.7,0.7,2.3c0.3-0.3,0.7-0.6,1.1-0.9c2.3-1.9,6.5-5.4,6.5-7.6c0-0.3,0-0.6-0.4-1c-0.4-0.2-0.7-0.4-1-0.4
	c-0.2,0-0.3,0-0.4,0.1c-0.4,0.4-0.8,0.6-1.2,0.9c-0.3,0.2-0.8,0.6-0.9,0.8l0.3,1.3l-1.3,0.5c-0.3,0.1-0.6,0.2-1,0.2
	c-1.1,0-2-0.7-2.4-2c-0.4-1.2-0.6-3.7,0.7-4.9c0.9-1,2.5-2.6,4.7-2.8c0.3-0.6,0.9-1.1,1.7-1.1H73c0.1,0,0.2-0.1,0.3-0.1
	c0.4-0.1,0.8-0.3,1.4-0.3c0.4,0,0.8,0.1,1.1,0.2c2,0.5,3.5,1.5,4.3,2.9c1.4,2.4,0.5,5.4-0.3,8c-0.1,0.4-0.2,0.7-0.3,1.1
	c-0.1,1.9-1.4,3-2.4,4c-0.8,0.8-1.3,1.3-1.4,2v0.1v0.1c-0.2,0.6-0.8,1.8-1.9,3.9c-0.1,0.3-0.3,0.6-0.5,0.9c1.8-1.3,4-2,6.1-2.4
	c-0.4-0.6-0.7-1.3-0.7-2.1c-0.3-3.1,1.9-7.1,5-8c2-1.6,4.2-2.5,6.4-2.5c2.6,0,5.2,1.3,7.1,3.5c2.2,2.7,3.1,6.4,2.5,10
	c0.1,1.1-0.2,2-0.9,2.7c-0.8,0.9-1.9,1.1-2.9,1.2c2.2,2.4,3.5,5.7,4.4,8.1c1.5,3.3-0.1,6.2-1.3,8.6c-0.3,0.5-0.6,1-0.8,1.5l-0.1,0.2
	l-0.2,0.2c-1.8,2-4.1,3-6.9,3c-4.2,0-8.7-2.2-12-3.9c-0.2-0.1-1-0.5-1-0.5L77.9,47l0,0c0.1,0.3,0.2,0.6,0.2,1c0.2,0.8,1,1.5,1.9,2.3
	c0.7,0.7,1.6,1.5,2.2,2.5l0.1,0.1V53c4.1,9.2,2.3,14.6,0,17.5v0.1v0.1C78.6,74.3,74.3,76.2,69.9,76.2L69.9,76.2z M41.9,57.8
	c-1.8,0-3.9,1.5-4.2,3l-0.1,0.3l-0.2,0.3c-1.1,1.6-1.5,3.7-0.8,5.4c0.3,0.9,1.1,2.1,3,2.5l0.2,0.1l0.2,0.1c0.8,0.4,1.7,0.7,2.7,0.7
	c2.6,0,4-1.4,4.3-2.9l0.1-0.5l0.3-0.4c1.4-1.5,2-3.2,2-5.1c-0.2,0.9-0.6,1.8-1.1,2.4c-0.6,0.7-1.4,1.1-2.2,1.1c-0.5,0-1.4-0.2-2.2-1
	l-0.3-0.3l-0.1-0.4c-0.4-1.1,0-2,0.2-2.7c0.1-0.2,0.1-0.4,0.2-0.5l-0.1-0.2v-0.3C43.5,58.3,43,57.8,41.9,57.8z M13.8,56.2
	c0.5,0,0.9,0.1,1.4,0.1c1,0,1.9-0.1,2.9-0.3c-1-0.1-1.9-0.6-2.5-1.3c-0.6-0.8-0.7-1.8-0.4-2.9l0.1-0.3l0.2-0.2
	c0.7-1,1.7-1.5,2.6-1.9c0.5-0.2,0.9-0.4,1.2-0.6c-0.3-0.1-0.5-0.2-0.7-0.3c-1-0.4-2.1-0.8-2.7-1.6c-0.3-0.3-0.4-0.3-0.4-0.3
	c-0.1,0-0.5,0.2-1.2,1c-0.6,0.8-1.1,1.7-1.5,2.5c-0.1,0.6-0.1,2,0.2,3.5C13.1,55,13.6,55.9,13.8,56.2z M22.3,53.4
	c-0.1,0.5-0.4,1-0.8,1.4c0.4-0.2,0.8-0.5,1.1-0.7c0.1-0.3,0.2-0.5,0.3-0.8C22.8,53.4,22.5,53.4,22.3,53.4z M25.3,47.9
	c0.1,1,0.2,1.9,0,2.6c0.9-0.7,1.8-1.3,2.6-1.9c0.5-0.3,0.9-0.6,1.3-0.9c1.1-1.2,2.6-2.2,3.9-3c0.2-0.1,0.4-0.2,0.6-0.4
	c-0.4-0.2-1-0.3-1.8-0.3c-0.7,0-1.5,0.1-2.3,0.2c-0.8,0.1-1.7,0.2-2.5,0.2c-0.2,0-0.4,0-0.5,0c-0.8,0-1.7-0.2-2.5-0.5
	C25,45,25.4,46.4,25.3,47.9z M85.6,40c1.5,0.6,2.9,1.2,4.4,1.8c1.8,0.8,2.9,1,3.5,1c0.7,0,0.7-0.1,0.7-0.6c0-1-0.7-2.6-1.6-4
	c-1.1-1.5-2.1-2-2.4-2.1l0,0l-0.1,0.1c-0.4,0.3-0.8,0.8-1.3,1.3C87.9,38.5,86.9,39.6,85.6,40z M74.7,37c2.3,0.3,4.5,0.8,6.7,1.5
	c-0.2-0.8,0.2-1.4,0.3-1.7c0-0.1,0-0.2,0-0.3c0.1-1.8,0.2-3.7,1.1-5.3c-4.2,0.4-8.5,2.4-9.9,5.8c0.1,0,0.2,0,0.3,0
	c0.2,0,0.5,0,0.7,0C74.2,36.9,74.5,36.9,74.7,37z M84.8,22.7c0.3,0.4,0.6,1,0.6,1.8c1-0.1,2-0.2,2.7-0.6l0.1-0.1h0.2
	c0.7-0.2,1.4-0.3,2.1-0.4c1.6-0.2,2.2-0.4,2.4-0.9c0.1-0.4-0.1-1-0.4-1.5c-0.2-0.3-0.4-0.4-0.5-0.5C87.4,20.6,85.9,21.6,84.8,22.7z"
	/>
<path d="M36.1,44.7c-1.7-3.5-5.9-1.9-9.1-1.9c-2.5,0.3-5.3-1.9-7.6-3.1c-2.6-2-6.8-7.2-7-10.5c-0.5-3.3,0.6-7.7,4.4-8.3
	c1.8-1.9,4.9-4.5,6.9-1.2c1.4,2,3.5,3.6,3.9,6.1c0.7,1.9-2.5,7.3-3.4,3.6c0.9-1.5,0.3-3,0.1-4.6c-2,0.4-5-2-6.4-0.8
	c-0.6,1.5-2,3.4-1.6,5c0.2,0.2-0.1,0.7-0.1,1.1c0.4,2.1,3.3,2.2,4.8,3.3c5.7,5.2,14,0.7,20.2,4.4c6.1-0.2,3.4-0.4,4.8-3.1
	c0.9-4.1-10.8-0.9-12.2-4.6c-4.7-4.4-0.7-24.6,9.5-23c7.1-2.1,14.3,2.6,18.6,8.1c2.1,1.4,2.2,10.2,4.5,8.8
	c2.7-2.6,12.1-8.9,8.1-12.8c-1-0.7-2.3-1.1-3.5-0.3c-1,1-3,1.7-2.7,3.3c-1.6,0.7-1.8-3.3-0.9-4c1-1.1,2.3-2.3,3.8-2.4
	c0.5-0.1,1.1,0,1.1-0.7c0-0.1,0.2-0.4,0.3-0.4c0.8,0.1,1.5-0.8,2.4-0.3c5.8,1.4,3.7,6.1,2.5,10.1c-0.1,2.6-3.4,3.4-3.8,6
	c-0.7,2.1-9.6,17.6-2.4,9.4c2.9-4.8,9.1-5,14.1-5.9c1.2-0.1,2.4-0.3,3.5-0.8c2-0.6,4.7-0.1,5.6-2.4c0.4-1.5-0.7-3.9-2.4-4.2
	c-3.2,0.2-6.3,0.5-8.6,3c-1.4,0.9,0.5,1.8,0.3,2.9c-6.2,2.9-4-7.1,0.3-7.8c7.2-6.4,15.2,1.2,13.5,9.5c0.3,3.5-4.2,2-6.3,2.5
	c-0.4,0.2-0.2,0.5,0.1,0.6c3.8,1.5,5.6,6.1,7,9.7c1.5,3.2-0.8,6-2.1,8.8c-4.6,5.1-12.6,0.9-17.7-1.6c-0.7-0.8-4.7-0.8-3.6,0.6
	c0.8,0.4,1,1.1,1,1.9c0.4,2.5,3,3.5,4.2,5.5c2.2,4.8,3.8,11.3,0.2,15.9c-5,5.4-14.8,6.5-19.7,0.2c-1.6-1.4-0.3-3.5-0.9-5.1
	c-0.9-1.1,0.2-1.8,0.6-2.8c-0.2-0.9,0.5-1.2,1.1-1.7c0.9-0.3,0.6-0.8,1.2-1.1c1.8-0.1,6.9,0.7,5.7,3.2c-0.6,1.3-2.1-0.4-3.2-0.1
	c-4.3-0.5-3.3,3.3-1.9,5.8c1.1,2.3,3.6,2.6,5.7,2.7c4.6,1.7,6.3-6.7,5.8-10c-1-6.7-7.5-13.1-14.2-14.2c-0.2,0-0.4,0-0.5-0.1
	c-0.8-0.9-3.2-1.2-3.6,0.1c-1.1,5.9,2.4,12.8-1.7,18.1c-2.9,3.6-5.3,9.2-10.6,9.3c-4.3-0.4-9,0.6-12.6-2.3
	c-5.7-3.4-1.8-10.3,0.9-14.4c3.8-4.5,15.4-6.9,15.5,1.6c0.2,1.6-1,5-2.9,3.1c-0.4-1.1,0.9-2.3,0.3-3.4c-0.8-5.3-8.2-2.8-9.2,1.2
	c-2.6,3.7-1.8,9.3,3.1,10.4c3.4,2,8.7,0.7,9.4-3.3c4.9-5.1,1.2-12,0.2-18c-0.7-4.1-1.7-4-5.3-2.6c-6.4,2.5-12.2,6.8-17.8,11
	c-3.8,2.8-11.1,5.6-15.2,2.1c-2.1-1.8-4.7-3.4-4.9-6.4c-1.1-1.9-0.7-4.1,0.5-5.7c1.5-2.5,3.8-5.2,6.9-5.5c3.7,0.5,10.9,0.2,10.3,5.6
	c0.8,5.7-2.6,2.8-2.8,4.4c0.1,2.7-4.9,2.7-4.1-0.1c1-1.3,2.9-1.4,3.9-2.7c2-2.2-2.8-2.4-3.7-3.7c-2.5-2.8-4.8,1.6-5.9,3.6
	c-0.6,2,0.3,7.5,2.1,8.4c3.7,0.4,8-0.3,10.9-2.8c0.4-2.7,4.1-4.5,6.2-6.1C32,47.2,34.5,46,36.1,44.7z M87,29.6
	c-5.9-0.9-14.8,1.7-16,8.2c0.5,1.2,2.5,0.5,3.5,0.7c5.2,0.7,10.1,2.7,14.9,4.7c12.6,5.5,3.4-11.5-0.3-8.4c-1.8,1.3-3.2,4.5-5.8,3.4
	c-0.7-0.3,0-0.8,0.1-1.2C83.5,33.9,83.5,31,87,29.6z M57.5,33.8c-2-1.5-5.4-0.9-4.8,2.4c0.2,1.4,0.9,1.9,1.8,2.6
	C56.8,39.5,59.1,35.7,57.5,33.8z M35.8,72c-4.8-4.8-3.5-8.6-0.4-13.6c-1.9-0.1-3,2.7-3.3,4.4C29.6,66.4,30.7,71.8,35.8,72z
	 M9.1,55.4c0.5-1.8-0.2-3.9,0.9-5.2c0.7-1.8,1-2.6,0.6-4.5C6.9,48.8,5.9,51.3,9.1,55.4z M75,70.5c0.9,0.4,3.1-1.6,2-2.5
	C75.2,67.1,75.1,69.3,75,70.5z M77.3,57.7c-1.1,0.4-1.1,0.5-0.5,1.2C78.7,62.1,78.5,59.5,77.3,57.7z M38.8,46.7
	c-1.4-0.5-1.8,0.9-2.8,1.1C37,47.5,38.1,47.7,38.8,46.7z M75.8,53.8c0.3-0.6-1.3-1.2-1.7-1.8C73.2,52.6,75.4,53.4,75.8,53.8z
	 M28.3,40.3c-0.2-0.5-1.4-0.6-1.6,0.1C27.2,40.9,27.7,40.5,28.3,40.3z M12,44.8c-1.1,0-1,0.1-0.9,1C11.5,45.9,11.5,45.3,12,44.8z
	 M76.8,55.4c0.4,0,0.2-0.7,0.1-0.8C76,54.3,76.1,54.9,76.8,55.4z"/>
<path class="st0" d="M35.8,72c-5.2-0.1-6.2-5.6-3.8-9.3c0.4-1.6,1.5-4.5,3.3-4.4C32.3,63.4,31.1,67.2,35.8,72z"/>
<path class="st0" d="M9.1,55.4c-3.2-4.1-2.1-6.6,1.5-9.7c0.5,1.9,0.2,2.7-0.6,4.5C8.9,51.4,9.5,53.6,9.1,55.4z"/>
<path class="st0" d="M75,70.5c0.1-1.2,0.2-3.5,2-2.5C78.1,68.9,75.9,70.9,75,70.5z"/>
<path class="st0" d="M77.3,57.7c0.1,0.7,1.8,2.9,0.5,2.7C77.4,59.5,75.4,58.1,77.3,57.7z"/>
<path class="st0" d="M38.8,46.7c-0.7,1.1-1.8,0.8-2.8,1.1C37,47.6,37.5,46.1,38.8,46.7z"/>
<path class="st0" d="M75.8,53.8c-0.4-0.4-2.6-1.3-1.7-1.8C74.5,52.6,76.1,53.2,75.8,53.8z"/>
<path class="st0" d="M28.3,40.3c-0.6,0.2-1.1,0.6-1.6,0.1C26.9,39.7,28.1,39.8,28.3,40.3z"/>
<path class="st0" d="M12,44.8c-0.5,0.5-0.5,1-0.9,1C11,45,10.9,44.8,12,44.8z"/>
<path class="st0" d="M76.8,55.4c-0.7-0.4-0.8-1.1,0.1-0.8C77,54.7,77.2,55.4,76.8,55.4z"/>
<path d="M53.4,36.6c-0.2-1.4,2.6-1.6,3.4-1.1C56,36.7,55.1,36.6,53.4,36.6z"/>
</svg>
