<?xml version="1.0" encoding="utf-8"?>
<!-- Generator: Adobe Illustrator 27.0.1, SVG Export Plug-In . SVG Version: 6.00 Build 0)  -->
<svg version="1.1" id="Layer_1" xmlns="http://www.w3.org/2000/svg" xmlns:xlink="http://www.w3.org/1999/xlink" x="0px" y="0px"
	 viewBox="0 0 142 142" style="enable-background:new 0 0 142 142;" xml:space="preserve">
<style type="text/css">
	.st0{opacity:0.3;enable-background:new    ;}
</style>
<rect x="0.1" class="st0" width="16.2" height="16.3"/>
<rect x="18" class="st0" width="16.2" height="16.3"/>
<rect x="35.9" class="st0" width="16.2" height="16.3"/>
<rect x="53.9" class="st0" width="16.2" height="16.3"/>
<rect x="71.8" class="st0" width="16.2" height="16.3"/>
<rect x="0.1" y="17.9" class="st0" width="16.2" height="16.3"/>
<rect x="18" y="17.9" class="st0" width="16.2" height="16.3"/>
<rect x="35.9" y="17.9" class="st0" width="16.2" height="16.3"/>
<rect x="53.9" y="17.9" class="st0" width="16.2" height="16.3"/>
<rect x="71.8" y="17.9" class="st0" width="16.2" height="16.3"/>
<rect x="0.1" y="35.9" class="st0" width="16.2" height="16.3"/>
<rect x="18" y="35.9" class="st0" width="16.2" height="16.3"/>
<rect x="35.9" y="35.9" class="st0" width="16.2" height="16.3"/>
<rect x="53.9" y="35.9" class="st0" width="16.2" height="16.3"/>
<rect x="71.8" y="35.9" class="st0" width="16.2" height="16.3"/>
<rect x="0.1" y="53.8" class="st0" width="16.2" height="16.3"/>
<rect x="18" y="53.8" class="st0" width="16.2" height="16.3"/>
<rect x="35.9" y="53.8" class="st0" width="16.2" height="16.3"/>
<rect x="53.9" y="53.8" class="st0" width="16.2" height="16.3"/>
<rect x="71.8" y="53.8" class="st0" width="16.2" height="16.3"/>
<rect x="0.1" y="71.8" class="st0" width="16.2" height="16.3"/>
<rect x="18" y="71.8" class="st0" width="16.2" height="16.3"/>
<rect x="35.9" y="71.8" class="st0" width="16.2" height="16.3"/>
<rect x="53.9" y="71.8" class="st0" width="16.2" height="16.3"/>
<rect x="71.8" y="71.8" class="st0" width="16.2" height="16.3"/>
<rect x="89.7" class="st0" width="16.2" height="16.3"/>
<rect x="107.6" class="st0" width="16.2" height="16.3"/>
<rect x="125.8" class="st0" width="16.2" height="16.3"/>
<rect x="89.7" y="17.9" class="st0" width="16.2" height="16.3"/>
<rect x="107.6" y="17.9" class="st0" width="16.2" height="16.3"/>
<rect x="125.8" y="17.9" class="st0" width="16.2" height="16.3"/>
<rect x="89.7" y="35.9" class="st0" width="16.2" height="16.3"/>
<rect x="107.6" y="35.9" class="st0" width="16.2" height="16.3"/>
<rect x="125.8" y="35.9" class="st0" width="16.2" height="16.3"/>
<rect x="89.7" y="53.8" class="st0" width="16.2" height="16.3"/>
<rect x="107.6" y="53.8" class="st0" width="16.2" height="16.3"/>
<rect x="125.8" y="53.8" class="st0" width="16.2" height="16.3"/>
<rect x="89.7" y="71.8" class="st0" width="16.2" height="16.3"/>
<rect x="107.6" y="71.8" class="st0" width="16.2" height="16.3"/>
<rect x="125.8" y="71.8" class="st0" width="16.2" height="16.3"/>
<rect x="0.1" y="89.7" class="st0" width="16.2" height="16.3"/>
<rect x="18" y="89.7" class="st0" width="16.2" height="16.3"/>
<rect x="35.9" y="89.7" class="st0" width="16.2" height="16.3"/>
<rect x="53.9" y="89.7" class="st0" width="16.2" height="16.3"/>
<rect x="71.8" y="89.7" class="st0" width="16.2" height="16.3"/>
<rect x="0.1" y="107.7" class="st0" width="16.2" height="16.3"/>
<rect x="18" y="107.7" class="st0" width="16.2" height="16.3"/>
<rect x="35.9" y="107.7" class="st0" width="16.2" height="16.3"/>
<rect x="53.9" y="107.7" class="st0" width="16.2" height="16.3"/>
<rect x="71.8" y="107.7" class="st0" width="16.2" height="16.3"/>
<rect x="0.1" y="125.8" class="st0" width="16.2" height="16.3"/>
<rect x="18" y="125.8" class="st0" width="16.2" height="16.3"/>
<rect x="35.9" y="125.8" class="st0" width="16.2" height="16.3"/>
<rect x="53.9" y="125.8" class="st0" width="16.2" height="16.3"/>
<rect x="71.8" y="125.8" class="st0" width="16.2" height="16.3"/>
<rect x="89.7" y="89.7" class="st0" width="16.2" height="16.3"/>
<rect x="107.6" y="89.7" class="st0" width="16.2" height="16.3"/>
<rect x="125.8" y="89.7" class="st0" width="16.2" height="16.3"/>
<rect x="89.7" y="107.7" class="st0" width="16.2" height="16.3"/>
<rect x="107.6" y="107.7" class="st0" width="16.2" height="16.3"/>
<rect x="125.8" y="107.7" class="st0" width="16.2" height="16.3"/>
<rect x="89.7" y="125.8" class="st0" width="16.2" height="16.3"/>
<rect x="107.6" y="125.8" class="st0" width="16.2" height="16.3"/>
<rect x="125.8" y="125.8" class="st0" width="16.2" height="16.3"/>
</svg>
